<mxfile host="app.diagrams.net" modified="2024-02-20T02:54:35.714Z" agent="Mozilla/5.0 (Macintosh; Intel Mac OS X 10_15_7) AppleWebKit/605.1.15 (KHTML, like Gecko) Version/16.3 Safari/605.1.15" etag="6wMn_HVQ_5IRPhN3-N_r" version="23.0.2" type="github">
  <diagram name="Page-1" id="Cs3PEmX1cTq5VMmg_b_n">
    <mxGraphModel dx="857" dy="570" grid="1" gridSize="10" guides="1" tooltips="1" connect="1" arrows="1" fold="1" page="1" pageScale="1" pageWidth="850" pageHeight="1100" math="0" shadow="0">
      <root>
        <mxCell id="0" />
        <mxCell id="1" parent="0" />
        <mxCell id="gPUhUYzJHijc3U4VqbK1-7" style="edgeStyle=orthogonalEdgeStyle;rounded=0;orthogonalLoop=1;jettySize=auto;html=1;exitX=1;exitY=0.5;exitDx=0;exitDy=0;" edge="1" parent="1" source="gPUhUYzJHijc3U4VqbK1-2" target="gPUhUYzJHijc3U4VqbK1-3">
          <mxGeometry relative="1" as="geometry" />
        </mxCell>
        <mxCell id="gPUhUYzJHijc3U4VqbK1-2" value="Preference differences between groups of stakeholders&lt;br&gt;&lt;br&gt;(Preference)" style="rounded=0;whiteSpace=wrap;html=1;fillColor=#f5f5f5;fontColor=#333333;strokeColor=#666666;" vertex="1" parent="1">
          <mxGeometry x="10" y="40" width="120" height="90" as="geometry" />
        </mxCell>
        <mxCell id="gPUhUYzJHijc3U4VqbK1-8" style="edgeStyle=orthogonalEdgeStyle;rounded=0;orthogonalLoop=1;jettySize=auto;html=1;exitX=1;exitY=0.5;exitDx=0;exitDy=0;entryX=0;entryY=0.5;entryDx=0;entryDy=0;" edge="1" parent="1" source="gPUhUYzJHijc3U4VqbK1-3" target="gPUhUYzJHijc3U4VqbK1-4">
          <mxGeometry relative="1" as="geometry" />
        </mxCell>
        <mxCell id="gPUhUYzJHijc3U4VqbK1-3" value="Unrepresentative stakeholders at local public meetings&lt;br&gt;&lt;br&gt;(Representativeness)" style="rounded=0;whiteSpace=wrap;html=1;fillColor=#fff2cc;strokeColor=#d6b656;" vertex="1" parent="1">
          <mxGeometry x="160" y="40" width="120" height="90" as="geometry" />
        </mxCell>
        <mxCell id="gPUhUYzJHijc3U4VqbK1-9" style="edgeStyle=orthogonalEdgeStyle;rounded=0;orthogonalLoop=1;jettySize=auto;html=1;exitX=1;exitY=0.5;exitDx=0;exitDy=0;entryX=0;entryY=0.5;entryDx=0;entryDy=0;" edge="1" parent="1" source="gPUhUYzJHijc3U4VqbK1-4" target="gPUhUYzJHijc3U4VqbK1-5">
          <mxGeometry relative="1" as="geometry" />
        </mxCell>
        <mxCell id="gPUhUYzJHijc3U4VqbK1-4" value="Communication at local public meetings&lt;br&gt;&lt;br&gt;&lt;br&gt;(Process)" style="rounded=0;whiteSpace=wrap;html=1;fillColor=#dae8fc;strokeColor=#6c8ebf;" vertex="1" parent="1">
          <mxGeometry x="310" y="40" width="120" height="90" as="geometry" />
        </mxCell>
        <mxCell id="gPUhUYzJHijc3U4VqbK1-10" style="edgeStyle=orthogonalEdgeStyle;rounded=0;orthogonalLoop=1;jettySize=auto;html=1;exitX=1;exitY=0.5;exitDx=0;exitDy=0;" edge="1" parent="1" source="gPUhUYzJHijc3U4VqbK1-5" target="gPUhUYzJHijc3U4VqbK1-6">
          <mxGeometry relative="1" as="geometry" />
        </mxCell>
        <mxCell id="gPUhUYzJHijc3U4VqbK1-5" value="Unequal responsiveness of city officials at the local government&lt;br&gt;&lt;br&gt;(Responsiveness)" style="rounded=0;whiteSpace=wrap;html=1;fillColor=#d5e8d4;strokeColor=#82b366;" vertex="1" parent="1">
          <mxGeometry x="460" y="40" width="120" height="90" as="geometry" />
        </mxCell>
        <mxCell id="gPUhUYzJHijc3U4VqbK1-6" value="Distortion in policy outcomes&lt;br&gt;&lt;br&gt;&lt;br&gt;(Outcome)" style="rounded=0;whiteSpace=wrap;html=1;fillColor=#ffe6cc;strokeColor=#d79b00;" vertex="1" parent="1">
          <mxGeometry x="610" y="40" width="120" height="90" as="geometry" />
        </mxCell>
        <mxCell id="gPUhUYzJHijc3U4VqbK1-18" style="edgeStyle=orthogonalEdgeStyle;rounded=0;orthogonalLoop=1;jettySize=auto;html=1;exitX=1;exitY=0.5;exitDx=0;exitDy=0;" edge="1" parent="1" source="gPUhUYzJHijc3U4VqbK1-11" target="gPUhUYzJHijc3U4VqbK1-12">
          <mxGeometry relative="1" as="geometry" />
        </mxCell>
        <mxCell id="gPUhUYzJHijc3U4VqbK1-11" value="Stakeholders" style="rounded=0;whiteSpace=wrap;html=1;" vertex="1" parent="1">
          <mxGeometry x="10" y="240" width="120" height="30" as="geometry" />
        </mxCell>
        <mxCell id="gPUhUYzJHijc3U4VqbK1-19" style="edgeStyle=orthogonalEdgeStyle;rounded=0;orthogonalLoop=1;jettySize=auto;html=1;exitX=1;exitY=0.5;exitDx=0;exitDy=0;" edge="1" parent="1" source="gPUhUYzJHijc3U4VqbK1-12" target="gPUhUYzJHijc3U4VqbK1-13">
          <mxGeometry relative="1" as="geometry" />
        </mxCell>
        <mxCell id="gPUhUYzJHijc3U4VqbK1-12" value="Stakeholders %" style="rounded=0;whiteSpace=wrap;html=1;" vertex="1" parent="1">
          <mxGeometry x="160" y="240" width="120" height="30" as="geometry" />
        </mxCell>
        <mxCell id="gPUhUYzJHijc3U4VqbK1-13" value="Stakeholders %" style="rounded=0;whiteSpace=wrap;html=1;" vertex="1" parent="1">
          <mxGeometry x="310" y="240" width="120" height="30" as="geometry" />
        </mxCell>
        <mxCell id="gPUhUYzJHijc3U4VqbK1-20" style="edgeStyle=orthogonalEdgeStyle;rounded=0;orthogonalLoop=1;jettySize=auto;html=1;exitX=1;exitY=0.5;exitDx=0;exitDy=0;" edge="1" parent="1" source="gPUhUYzJHijc3U4VqbK1-14" target="gPUhUYzJHijc3U4VqbK1-15">
          <mxGeometry relative="1" as="geometry" />
        </mxCell>
        <mxCell id="gPUhUYzJHijc3U4VqbK1-54" style="edgeStyle=orthogonalEdgeStyle;rounded=0;orthogonalLoop=1;jettySize=auto;html=1;exitX=0.5;exitY=1;exitDx=0;exitDy=0;entryX=0.5;entryY=0;entryDx=0;entryDy=0;startArrow=classic;startFill=1;" edge="1" parent="1" source="gPUhUYzJHijc3U4VqbK1-14" target="gPUhUYzJHijc3U4VqbK1-13">
          <mxGeometry relative="1" as="geometry" />
        </mxCell>
        <mxCell id="gPUhUYzJHijc3U4VqbK1-14" value="City officials" style="rounded=0;whiteSpace=wrap;html=1;" vertex="1" parent="1">
          <mxGeometry x="310" y="180" width="120" height="30" as="geometry" />
        </mxCell>
        <mxCell id="gPUhUYzJHijc3U4VqbK1-21" style="rounded=0;orthogonalLoop=1;jettySize=auto;html=1;exitX=1;exitY=1;exitDx=0;exitDy=0;entryX=0;entryY=0;entryDx=0;entryDy=0;" edge="1" parent="1" source="gPUhUYzJHijc3U4VqbK1-15" target="gPUhUYzJHijc3U4VqbK1-16">
          <mxGeometry relative="1" as="geometry" />
        </mxCell>
        <mxCell id="gPUhUYzJHijc3U4VqbK1-15" value="City officials" style="rounded=0;whiteSpace=wrap;html=1;" vertex="1" parent="1">
          <mxGeometry x="460" y="180" width="120" height="30" as="geometry" />
        </mxCell>
        <mxCell id="gPUhUYzJHijc3U4VqbK1-16" value="Stakeholders" style="rounded=0;whiteSpace=wrap;html=1;" vertex="1" parent="1">
          <mxGeometry x="610" y="240" width="120" height="30" as="geometry" />
        </mxCell>
        <mxCell id="gPUhUYzJHijc3U4VqbK1-36" value="Scenario 1: Distortion in Representativeness" style="text;html=1;strokeColor=none;fillColor=none;align=left;verticalAlign=middle;whiteSpace=wrap;rounded=0;labelBackgroundColor=#FFF2CC;" vertex="1" parent="1">
          <mxGeometry x="10" y="280" width="280" height="30" as="geometry" />
        </mxCell>
        <mxCell id="gPUhUYzJHijc3U4VqbK1-37" value="" style="ellipse;whiteSpace=wrap;html=1;aspect=fixed;fillColor=#fff2cc;strokeColor=#d6b656;" vertex="1" parent="1">
          <mxGeometry x="60" y="313" width="20" height="20" as="geometry" />
        </mxCell>
        <mxCell id="gPUhUYzJHijc3U4VqbK1-38" value="" style="ellipse;whiteSpace=wrap;html=1;aspect=fixed;fillColor=#fff2cc;strokeColor=#d6b656;" vertex="1" parent="1">
          <mxGeometry x="210" y="313" width="20" height="20" as="geometry" />
        </mxCell>
        <mxCell id="gPUhUYzJHijc3U4VqbK1-39" value="Scenario 2: Distortion in Process" style="text;html=1;strokeColor=none;fillColor=none;align=left;verticalAlign=middle;whiteSpace=wrap;rounded=0;labelBackgroundColor=#CCE5FF;" vertex="1" parent="1">
          <mxGeometry x="10" y="336" width="290" height="30" as="geometry" />
        </mxCell>
        <mxCell id="gPUhUYzJHijc3U4VqbK1-40" value="" style="ellipse;whiteSpace=wrap;html=1;aspect=fixed;fillColor=#dae8fc;strokeColor=#6c8ebf;" vertex="1" parent="1">
          <mxGeometry x="60" y="369" width="20" height="20" as="geometry" />
        </mxCell>
        <mxCell id="gPUhUYzJHijc3U4VqbK1-41" value="" style="ellipse;whiteSpace=wrap;html=1;aspect=fixed;fillColor=#dae8fc;strokeColor=#6c8ebf;" vertex="1" parent="1">
          <mxGeometry x="360" y="369" width="20" height="20" as="geometry" />
        </mxCell>
        <mxCell id="gPUhUYzJHijc3U4VqbK1-42" value="" style="endArrow=none;dashed=1;html=1;dashPattern=1 3;strokeWidth=2;rounded=0;" edge="1" parent="1">
          <mxGeometry width="50" height="50" relative="1" as="geometry">
            <mxPoint x="10" y="280" as="sourcePoint" />
            <mxPoint x="730" y="280" as="targetPoint" />
          </mxGeometry>
        </mxCell>
        <mxCell id="gPUhUYzJHijc3U4VqbK1-44" value="" style="ellipse;whiteSpace=wrap;html=1;aspect=fixed;fillColor=#d5e8d4;strokeColor=#82b366;" vertex="1" parent="1">
          <mxGeometry x="60" y="424" width="20" height="20" as="geometry" />
        </mxCell>
        <mxCell id="gPUhUYzJHijc3U4VqbK1-45" value="" style="ellipse;whiteSpace=wrap;html=1;aspect=fixed;fillColor=#d5e8d4;strokeColor=#82b366;" vertex="1" parent="1">
          <mxGeometry x="510" y="424" width="20" height="20" as="geometry" />
        </mxCell>
        <mxCell id="gPUhUYzJHijc3U4VqbK1-49" value="Scenario 4: Distortion in Outcome" style="text;html=1;strokeColor=none;fillColor=none;align=left;verticalAlign=middle;whiteSpace=wrap;rounded=0;labelBackgroundColor=#ffecd5;" vertex="1" parent="1">
          <mxGeometry x="10" y="447" width="290" height="30" as="geometry" />
        </mxCell>
        <mxCell id="gPUhUYzJHijc3U4VqbK1-50" value="" style="ellipse;whiteSpace=wrap;html=1;aspect=fixed;fillColor=#ffe6cc;strokeColor=#d79b00;" vertex="1" parent="1">
          <mxGeometry x="60" y="480" width="20" height="20" as="geometry" />
        </mxCell>
        <mxCell id="gPUhUYzJHijc3U4VqbK1-51" value="" style="ellipse;whiteSpace=wrap;html=1;aspect=fixed;fillColor=#ffe6cc;strokeColor=#d79b00;" vertex="1" parent="1">
          <mxGeometry x="660" y="480" width="20" height="20" as="geometry" />
        </mxCell>
        <mxCell id="gPUhUYzJHijc3U4VqbK1-58" value="Participants involved" style="text;html=1;strokeColor=none;fillColor=none;align=left;verticalAlign=middle;whiteSpace=wrap;rounded=0;labelBackgroundColor=#d6d6d6;" vertex="1" parent="1">
          <mxGeometry x="10" y="150" width="220" height="30" as="geometry" />
        </mxCell>
        <mxCell id="gPUhUYzJHijc3U4VqbK1-59" value="" style="endArrow=none;dashed=1;html=1;dashPattern=1 3;strokeWidth=2;rounded=0;" edge="1" parent="1">
          <mxGeometry width="50" height="50" relative="1" as="geometry">
            <mxPoint x="10" y="150" as="sourcePoint" />
            <mxPoint x="730" y="150" as="targetPoint" />
          </mxGeometry>
        </mxCell>
        <mxCell id="gPUhUYzJHijc3U4VqbK1-60" value="Scenario 3: Distortion in Responsiveness" style="text;html=1;strokeColor=none;fillColor=none;align=left;verticalAlign=middle;whiteSpace=wrap;rounded=0;labelBackgroundColor=#D5E8D4;" vertex="1" parent="1">
          <mxGeometry x="10" y="391" width="290" height="30" as="geometry" />
        </mxCell>
      </root>
    </mxGraphModel>
  </diagram>
</mxfile>
